<svg version="1.1" id="Layer_1" xmlns="http://www.w3.org/2000/svg" xmlns:xlink="http://www.w3.org/1999/xlink" x="0px" y="0px"
	 width="100%" viewBox="0 0 500 500" enable-background="new 0 0 500 500" xml:space="preserve">
<path fill="#3189FA" opacity="1.000000" stroke="none" 
	d="
M1.000000,177.000000 
	C1.000000,118.014610 1.000000,59.529213 1.000000,1.021910 
	C167.610443,1.021910 334.220886,1.021910 500.915649,1.021910 
	C500.915649,167.568787 500.915649,334.137634 500.915649,500.853241 
	C334.333435,500.853241 167.666733,500.853241 1.000000,500.853241 
	C1.000000,393.112305 1.000000,285.306152 1.000000,177.000000 
M450.827942,200.645187 
	C440.780365,160.610245 420.806305,126.370224 390.190979,98.674507 
	C343.488037,56.425453 288.364990,38.951912 226.098694,46.548100 
	C173.487473,52.966415 130.008743,77.571640 95.500122,117.903419 
	C43.386173,178.811356 32.710506,269.585327 69.310616,340.983246 
	C107.120506,414.741180 183.325958,460.730194 272.336517,452.694000 
	C316.968597,448.664459 356.765411,431.436768 389.404236,400.655914 
	C447.219604,346.131775 467.023773,279.160431 450.827942,200.645187 
z"/>
<path fill="#353D7A" opacity="1.000000" stroke="none" 
	d="
M450.912964,201.050354 
	C467.023773,279.160431 447.219604,346.131775 389.404236,400.655914 
	C356.765411,431.436768 316.968597,448.664459 272.336517,452.694000 
	C183.325958,460.730194 107.120506,414.741180 69.310616,340.983246 
	C32.710506,269.585327 43.386173,178.811356 95.500122,117.903419 
	C130.008743,77.571640 173.487473,52.966415 226.098694,46.548100 
	C288.364990,38.951912 343.488037,56.425453 390.190979,98.674507 
	C420.806305,126.370224 440.780365,160.610245 450.912964,201.050354 
M326.552643,62.999695 
	C294.132935,49.563347 260.305756,45.981709 225.823395,50.389832 
	C185.428238,55.553841 149.458984,71.579651 119.300812,99.167641 
	C63.116955,150.563309 41.957115,214.552765 55.587135,288.964478 
	C64.849464,339.531250 91.797058,380.387207 133.378357,410.847961 
	C176.576767,442.493347 225.033981,454.653015 278.268890,448.054718 
	C310.401062,444.072052 339.871307,433.022858 366.100952,414.311218 
	C418.104034,377.213379 447.254211,326.834076 452.157135,262.770416 
	C453.811005,241.160370 452.217163,219.794571 446.430023,199.022293 
	C428.527618,134.764130 388.683105,89.452309 326.552643,62.999695 
z"/>
<path fill="#FAF0CB" opacity="1.000000" stroke="none" 
	d="
M326.930969,63.081512 
	C388.683105,89.452309 428.527618,134.764130 446.430023,199.022293 
	C452.217163,219.794571 453.811005,241.160370 452.157135,262.770416 
	C447.254211,326.834076 418.104034,377.213379 366.100952,414.311218 
	C339.871307,433.022858 310.401062,444.072052 278.268890,448.054718 
	C225.033981,454.653015 176.576767,442.493347 133.378357,410.847961 
	C91.797058,380.387207 64.849464,339.531250 55.587135,288.964478 
	C41.957115,214.552765 63.116955,150.563309 119.300812,99.167641 
	C149.458984,71.579651 185.428238,55.553841 225.823395,50.389832 
	C260.305756,45.981709 294.132935,49.563347 326.930969,63.081512 
M116.022659,382.973602 
	C116.022659,382.973602 115.975784,382.915680 115.031487,383.127594 
	C115.880829,384.456757 116.506119,386.018982 117.611618,387.081665 
	C175.186066,442.426270 264.204956,456.450775 336.102142,421.921875 
	C401.877106,390.333160 453.280334,321.056885 444.805725,229.391647 
	C440.839172,186.487595 423.127655,149.194183 393.315247,118.200554 
	C354.961670,78.327377 307.817139,58.058300 252.289185,57.943607 
	C198.852875,57.833233 152.863434,76.711121 114.979713,114.025238 
	C55.695068,172.418518 42.864964,259.450897 76.948486,331.142578 
	C85.816589,349.795837 97.560944,366.497070 111.923920,381.328308 
	C112.876350,382.311798 114.675323,382.475494 116.022659,382.973602 
z"/>
<path fill="#4A97FA" opacity="1.000000" stroke="none" 
	d="
M116.080544,383.020538 
	C114.675323,382.475494 112.876350,382.311798 111.923920,381.328308 
	C97.560944,366.497070 85.816589,349.795837 76.948486,331.142578 
	C42.864964,259.450897 55.695068,172.418518 114.979713,114.025238 
	C152.863434,76.711121 198.852875,57.833233 252.289185,57.943607 
	C307.817139,58.058300 354.961670,78.327377 393.315247,118.200554 
	C423.127655,149.194183 440.839172,186.487595 444.805725,229.391647 
	C453.280334,321.056885 401.877106,390.333160 336.102142,421.921875 
	C264.204956,456.450775 175.186066,442.426270 117.611618,387.081665 
	C116.506119,386.018982 115.880829,384.456757 115.811974,383.160889 
	C117.806450,384.334717 118.995316,385.503448 120.238037,386.611816 
	C173.079086,433.739807 234.290909,449.756927 302.545746,431.596924 
	C399.117340,405.902954 456.616241,315.316803 440.986786,216.925156 
	C427.324188,130.915649 347.662994,62.013184 260.239532,59.945721 
	C212.955643,58.827511 170.657791,72.062897 133.128250,100.870522 
	C59.425926,157.444305 38.728657,262.791534 85.563354,343.014801 
	C94.099854,357.636963 104.608376,370.677216 116.080544,383.020538 
z"/>
<path fill="#FBFCFE" opacity="1.000000" stroke="none" 
	d="
M116.051605,382.997070 
	C104.608376,370.677216 94.099854,357.636963 85.563354,343.014801 
	C38.728657,262.791534 59.425926,157.444305 133.128250,100.870522 
	C170.657791,72.062897 212.955643,58.827511 260.239532,59.945721 
	C347.662994,62.013184 427.324188,130.915649 440.986786,216.925156 
	C456.616241,315.316803 399.117340,405.902954 302.545746,431.596924 
	C234.290909,449.756927 173.079086,433.739807 120.238037,386.611816 
	C118.995316,385.503448 117.806450,384.334717 116.284119,383.054932 
	C115.975784,382.915680 116.022659,382.973602 116.051605,382.997070 
M95.066750,169.193939 
	C103.671539,167.438797 112.203720,164.871613 120.895950,164.094421 
	C140.103012,162.377029 159.105011,164.929184 177.937317,168.751358 
	C180.664841,169.304916 183.063278,169.924301 185.693497,167.463531 
	C211.511230,143.308960 242.257523,137.031067 276.010559,144.077423 
	C317.184753,152.673019 353.261383,185.841125 359.881622,230.177032 
	C360.201782,232.321136 362.329681,234.762817 364.288269,236.008240 
	C387.527527,250.785706 410.593048,265.694794 424.632782,291.282684 
	C425.139771,289.624451 425.601166,288.453766 425.853577,287.239594 
	C430.372925,265.499756 431.188690,243.565689 427.711731,221.683792 
	C414.378815,137.773911 346.036804,80.603333 273.675842,72.743423 
	C236.119324,68.664001 200.318604,74.271439 167.027603,92.748230 
	C134.901016,110.578758 109.854195,135.411743 93.040985,168.960129 
	C93.102020,169.212051 93.163055,169.463959 93.224091,169.715881 
	C93.587517,169.581512 93.950935,169.447128 95.066750,169.193939 
M410.925201,327.643616 
	C406.694550,329.106934 402.559662,331.005676 398.217224,331.960968 
	C375.033813,337.060883 351.848022,334.921600 328.721619,331.377319 
	C325.654419,330.907227 323.799591,331.626526 321.234344,333.511688 
	C312.847717,339.674896 304.536621,346.515869 295.111694,350.581177 
	C268.969086,361.857391 242.085861,361.092346 215.834518,350.771393 
	C181.967911,337.456390 158.975159,313.718750 150.598953,277.617157 
	C149.151505,271.378601 146.629257,268.145020 140.971466,265.423035 
	C115.847313,253.335739 94.226227,236.815201 78.368446,213.455612 
	C78.271111,213.312241 77.777542,213.437851 77.474159,213.437851 
	C73.643379,232.279755 72.887222,257.597137 75.384056,274.023041 
	C82.050880,317.881989 101.521980,354.992035 135.346039,383.691437 
	C182.845200,423.993988 237.600876,436.612030 297.782349,421.006317 
	C349.802307,407.516937 387.352142,375.080048 411.886963,327.338257 
	C411.886963,327.338257 411.574127,327.086700 410.925201,327.643616 
M331.017029,183.488663 
	C308.201843,158.291962 279.985565,145.750504 245.867493,148.123398 
	C224.470917,149.611542 205.120346,156.766739 188.907425,171.430283 
	C187.212158,172.963547 184.236313,173.914185 181.936462,173.775757 
	C176.828018,173.468277 171.779343,172.245148 166.692429,171.488724 
	C146.366440,168.466339 126.101112,167.066772 105.786171,172.026993 
	C90.956360,175.647934 81.925262,186.352203 84.146637,199.618698 
	C85.710670,208.959427 90.534393,216.958542 96.595451,224.205017 
	C110.646774,241.004547 128.684464,252.532974 147.759033,262.571320 
	C151.819855,264.708405 154.060654,267.254639 155.039261,271.670074 
	C158.547989,287.501434 165.908386,301.512726 176.012741,314.099152 
	C191.632248,333.555511 211.750046,345.991791 236.344452,349.794220 
	C266.938721,354.524231 294.644623,346.627930 319.004974,327.483948 
	C322.088470,325.060699 325.065948,324.882172 328.719788,325.325592 
	C348.801331,327.762726 368.843597,332.258942 389.179443,328.822235 
	C396.917206,327.514557 404.770050,325.358215 411.850250,322.048157 
	C422.409515,317.111603 425.899200,306.461609 420.901093,295.946381 
	C417.934387,289.704956 414.278748,283.570770 409.866302,278.277435 
	C395.929291,261.557983 377.312531,250.508591 359.624451,238.418655 
	C356.505798,236.287033 354.647644,234.210403 353.887146,230.455078 
	C350.373810,213.106598 343.879761,197.119202 331.017029,183.488663 
z"/>
<path fill="#2F3677" opacity="1.000000" stroke="none" 
	d="
M411.909851,327.439606 
	C387.352142,375.080048 349.802307,407.516937 297.782349,421.006317 
	C237.600876,436.612030 182.845200,423.993988 135.346039,383.691437 
	C101.521980,354.992035 82.050880,317.881989 75.384056,274.023041 
	C72.887222,257.597137 73.643379,232.279755 77.474159,213.437851 
	C77.777542,213.437851 78.271111,213.312241 78.368446,213.455612 
	C94.226227,236.815201 115.847313,253.335739 140.971466,265.423035 
	C146.629257,268.145020 149.151505,271.378601 150.598953,277.617157 
	C158.975159,313.718750 181.967911,337.456390 215.834518,350.771393 
	C242.085861,361.092346 268.969086,361.857391 295.111694,350.581177 
	C304.536621,346.515869 312.847717,339.674896 321.234344,333.511688 
	C323.799591,331.626526 325.654419,330.907227 328.721619,331.377319 
	C351.848022,334.921600 375.033813,337.060883 398.217224,331.960968 
	C402.559662,331.005676 406.694550,329.106934 411.281006,327.503418 
	C411.636780,327.363251 411.909851,327.439606 411.909851,327.439606 
M185.639114,381.128754 
	C187.955429,377.577667 190.271744,374.026550 192.727814,370.261169 
	C189.172638,367.892487 186.051025,365.812683 182.800095,363.646698 
	C180.543762,366.959473 178.593033,369.823517 176.544037,372.831879 
	C174.263382,371.343628 172.186523,369.988342 169.915298,368.506226 
	C171.917374,365.339233 173.822891,362.324982 175.894165,359.048553 
	C172.472839,356.778778 169.348251,354.705872 165.926163,352.435577 
	C160.012756,361.340118 154.372696,369.833008 148.625046,378.487946 
	C152.239594,380.888306 155.360657,382.960999 158.605453,385.115814 
	C160.731018,382.051575 162.598587,379.359283 164.660019,376.387482 
	C166.973389,377.914246 168.997543,379.250153 171.245102,380.733490 
	C169.280975,383.818085 167.518021,386.586761 165.519623,389.725189 
	C168.909317,391.977570 172.131317,394.118530 175.499619,396.356689 
	C178.969696,391.121948 182.088837,386.416626 185.639114,381.128754 
M233.448730,382.761322 
	C229.664078,381.888000 225.879425,381.014709 221.619598,380.031738 
	C220.687790,391.289551 219.856812,401.329071 218.997818,411.707153 
	C223.227554,412.001862 226.950195,412.261261 230.801346,412.529572 
	C231.301987,408.521820 231.754654,404.898071 232.348953,400.140625 
	C235.033310,405.067383 236.232651,410.082672 239.391159,412.273804 
	C242.546387,414.462646 247.662582,413.824707 253.147568,414.599548 
	C249.916565,408.915161 247.264069,404.708282 245.147247,400.247223 
	C244.503326,398.890198 244.734406,396.408295 245.603958,395.173340 
	C248.424835,391.167328 251.727722,387.500702 254.673523,383.912201 
	C244.409195,379.237335 238.063171,383.815063 233.323547,393.575043 
	C233.066452,391.511932 232.934357,391.032654 232.960312,390.562073 
	C233.088745,388.233795 233.258942,385.907867 233.448730,382.761322 
M179.943176,397.290375 
	C183.562225,398.857880 187.492523,402.189240 190.734024,401.617218 
	C197.033142,400.505646 200.306915,400.809753 203.148575,406.224304 
	C203.485489,406.866241 204.285187,407.427643 204.994171,407.684082 
	C208.178650,408.836029 211.407867,409.864288 214.602203,410.930969 
	C214.602203,406.577393 214.668930,402.753265 214.583450,398.932556 
	C214.497787,395.103577 214.207062,391.279480 214.099564,387.450623 
	C213.819046,377.459167 213.815033,377.527435 204.486496,374.226440 
	C201.861786,373.297638 200.128098,373.357605 198.163040,375.797607 
	C192.420181,382.928528 186.331787,389.781128 179.943176,397.290375 
z"/>
<path fill="#303878" opacity="1.000000" stroke="none" 
	d="
M93.326027,168.478592 
	C109.854195,135.411743 134.901016,110.578758 167.027603,92.748230 
	C200.318604,74.271439 236.119324,68.664001 273.675842,72.743423 
	C346.036804,80.603333 414.378815,137.773911 427.711731,221.683792 
	C431.188690,243.565689 430.372925,265.499756 425.853577,287.239594 
	C425.601166,288.453766 425.139771,289.624451 424.632782,291.282684 
	C410.593048,265.694794 387.527527,250.785706 364.288269,236.008240 
	C362.329681,234.762817 360.201782,232.321136 359.881622,230.177032 
	C353.261383,185.841125 317.184753,152.673019 276.010559,144.077423 
	C242.257523,137.031067 211.511230,143.308960 185.693497,167.463531 
	C183.063278,169.924301 180.664841,169.304916 177.937317,168.751358 
	C159.105011,164.929184 140.103012,162.377029 120.895950,164.094421 
	C112.203720,164.871613 103.671539,167.438797 94.449860,169.037231 
	C93.664001,168.746552 93.495018,168.612579 93.326027,168.478592 
M352.575806,163.311035 
	C354.384613,166.815567 356.193420,170.320114 358.287781,174.377884 
	C367.772949,167.138382 376.391937,160.559998 385.104553,153.910156 
	C382.504120,150.566849 380.304901,147.739334 378.034424,144.820251 
	C370.334015,150.697784 363.122345,156.279816 355.798065,161.710022 
	C354.684906,162.535339 353.049469,162.656143 352.077301,162.373856 
	C352.933746,157.682587 353.970398,153.014465 354.577087,148.291107 
	C354.924957,145.582703 355.816254,144.282379 358.707825,143.825912 
	C363.329163,143.096375 367.856506,141.771683 372.194458,140.752441 
	C367.270325,130.698090 359.199066,131.089661 350.352509,133.412247 
	C352.557617,131.020996 354.762695,128.629745 357.238708,125.944702 
	C354.194397,123.156021 351.406189,120.601944 348.357666,117.809402 
	C341.302155,125.442413 334.353638,132.959641 327.148651,140.754364 
	C330.219604,143.561783 332.986206,146.090973 336.208710,149.036926 
	C338.863159,146.302780 341.223206,143.871887 343.994507,141.017395 
	C343.994507,142.634491 344.338531,143.879456 343.940521,144.805435 
	C340.499207,152.811386 344.463165,157.901779 350.582733,162.207504 
	C350.982239,162.488586 351.379120,162.773453 352.575806,163.311035 
M151.359879,123.757843 
	C151.285629,125.205864 150.906647,126.720879 151.206848,128.086594 
	C151.685806,130.265411 152.616501,132.344925 153.629211,135.249496 
	C143.489441,127.906158 143.489441,127.906158 135.812775,135.988861 
	C142.909531,140.949524 149.963730,145.880447 157.183060,150.926819 
	C159.875153,148.863831 163.551392,147.413193 164.508118,144.919281 
	C165.417877,142.547806 163.485443,139.085968 162.626221,135.332687 
	C165.607651,137.303772 168.143219,138.980072 170.846954,140.767578 
	C173.665344,138.665009 176.422913,136.607788 179.158386,134.567078 
	C176.342804,125.989250 173.675201,117.862274 170.846237,109.243729 
	C167.285568,111.954704 164.297806,114.229500 161.353043,116.471542 
	C162.703049,119.916924 163.885193,122.933891 165.523773,127.115768 
	C161.735016,124.287643 159.009003,122.252800 156.274216,120.211418 
	C154.645233,121.363457 153.292633,122.320038 151.359879,123.757843 
M282.340393,102.794876 
	C280.665253,107.972717 278.990112,113.150551 277.205841,118.665771 
	C280.841461,119.881721 284.229187,121.014755 287.990601,122.272774 
	C289.386505,118.182655 290.470734,114.371910 292.038513,110.771751 
	C292.554932,109.585915 294.321777,108.944611 295.516846,108.054306 
	C295.984741,109.453217 297.091614,111.003929 296.802032,112.222870 
	C295.893341,116.047836 294.458893,119.747894 293.060852,124.005539 
	C296.789703,125.185410 300.291656,126.293480 304.069061,127.488716 
	C305.920990,121.646820 307.804199,116.501587 309.163452,111.221466 
	C310.950745,104.278763 306.796143,99.507942 299.582367,99.770271 
	C298.274994,99.817825 296.753906,100.252007 295.696167,99.745743 
	C292.315002,98.127426 289.105347,96.150795 285.388458,94.065025 
	C284.247864,97.432396 283.460938,99.755585 282.340393,102.794876 
M378.843231,177.784760 
	C378.585358,177.357162 378.333923,176.925552 378.068665,176.502579 
	C375.964264,173.146591 373.496490,169.683136 369.058960,171.036301 
	C366.739227,171.743698 364.057281,174.049652 363.231049,176.264771 
	C361.701996,180.364120 363.561035,184.035995 367.268219,186.579422 
	C367.870178,186.992401 368.558716,187.532349 368.804749,188.169113 
	C370.205322,191.794250 371.483856,195.466537 372.905640,199.404678 
	C378.071869,196.548508 382.391724,194.389755 386.471161,191.845551 
	C391.333099,188.813309 393.435638,184.390503 391.468903,179.533829 
	C389.408844,174.446808 386.222961,169.815720 383.871521,165.599274 
	C380.984863,167.811523 378.924133,169.390823 377.362091,170.587936 
	C379.247894,174.241714 380.851105,177.347900 382.454315,180.454102 
	C381.938965,180.709351 381.423584,180.964584 380.908234,181.219818 
	C380.321808,180.302109 379.735382,179.384399 378.843231,177.784760 
M259.608917,117.227242 
	C264.239380,118.606361 268.664001,118.293510 273.048645,115.853729 
	C272.532776,113.513680 272.077179,111.447090 271.741699,109.925308 
	C268.005157,109.474449 264.692841,109.074776 261.380554,108.675102 
	C261.448425,108.100128 261.516327,107.525162 261.584229,106.950195 
	C264.546021,107.277046 267.502869,107.661026 270.470673,107.918953 
	C276.825470,108.471252 278.929565,106.017143 277.000488,99.867119 
	C276.392181,97.927879 275.057709,95.860733 273.452423,94.655411 
	C268.254059,90.752220 262.420380,90.210945 256.515930,92.961678 
	C251.622879,95.241241 249.446655,99.507767 249.567322,104.710938 
	C249.710190,110.871849 253.125488,114.885460 259.608917,117.227242 
M208.265610,122.981995 
	C210.716339,121.989212 213.322174,121.261917 215.581696,119.941841 
	C219.031937,117.926132 220.843353,114.799164 219.740128,110.682556 
	C218.568680,106.311348 215.060181,105.435150 211.147858,105.500046 
	C209.091202,105.534164 207.038101,105.782890 204.983398,105.934708 
	C204.895859,105.410088 204.808319,104.885468 204.720779,104.360847 
	C208.120071,103.727386 211.519348,103.093925 215.171951,102.413254 
	C214.665131,100.195389 214.158752,97.979408 213.613510,95.593361 
	C207.339523,95.321228 201.559662,96.363556 197.270325,100.667732 
	C195.470612,102.473671 194.064178,106.289864 194.747986,108.485466 
	C195.398087,110.572868 198.821091,112.312454 201.370773,113.142624 
	C203.762314,113.921310 206.606644,113.309380 209.251724,113.309380 
	C209.292725,113.814125 209.333740,114.318871 209.374741,114.823616 
	C205.636139,115.496002 201.897552,116.168388 197.767349,116.911209 
	C198.294495,119.303795 198.777481,121.495888 199.372681,124.197327 
	C202.279221,123.799782 204.864380,123.446198 208.265610,122.981995 
M227.484741,110.008484 
	C226.266312,110.067566 225.047882,110.126648 223.871201,110.183708 
	C223.654083,117.741043 223.888351,118.069267 230.807938,117.907059 
	C233.445084,117.845230 236.124771,117.521492 238.690262,116.915634 
	C243.922150,115.680092 246.588684,112.342400 246.266541,107.904633 
	C245.886093,102.663666 241.909348,101.810020 237.876694,101.046455 
	C236.154785,100.720421 234.421494,100.454475 232.693375,100.161232 
	C232.758652,99.739006 232.823914,99.316780 232.889175,98.894554 
	C236.294983,98.894554 239.700806,98.894554 243.013062,98.894554 
	C243.013062,96.356773 243.013062,94.231850 243.013062,91.929199 
	C237.099152,90.298836 231.380188,90.558640 226.514847,93.756714 
	C224.293594,95.216759 222.195236,98.795692 222.324661,101.295380 
	C222.430283,103.335464 225.652130,105.706711 228.004868,106.995331 
	C230.226959,108.212418 233.117371,108.209343 235.713806,108.742973 
	C235.666473,109.180473 235.619141,109.617981 235.571808,110.055489 
	C233.188995,110.055489 230.806183,110.055489 227.484741,110.008484 
M375.953430,208.622910 
	C377.082520,213.450058 380.134766,210.485550 382.172272,209.901566 
	C390.889557,207.402954 390.859161,207.296921 395.096497,214.656372 
	C398.028351,214.058609 401.012390,213.450195 405.288300,212.578400 
	C399.793732,206.586823 400.468628,199.310318 397.300842,193.087814 
	C389.378265,195.610535 381.582794,198.092773 373.493622,200.668518 
	C374.365936,203.448257 375.053772,205.640182 375.953430,208.622910 
M193.679977,117.796982 
	C192.282776,114.845627 190.885574,111.894272 189.341064,108.631767 
	C185.762741,110.282150 182.500366,111.786804 178.958054,113.420570 
	C181.725540,119.453896 184.377853,125.236137 187.063751,131.091599 
	C190.819489,129.337448 194.038437,127.834007 197.443649,126.243568 
	C196.118759,123.287674 195.045135,120.892403 193.679977,117.796982 
M384.938904,233.433655 
	C388.185150,234.058334 390.645966,232.384781 390.632019,229.523270 
	C390.619293,226.907608 389.138580,224.046646 387.548187,221.838806 
	C387.044983,221.140305 382.755005,221.779922 382.524323,222.526199 
	C381.719238,225.130844 381.738068,228.059860 381.878296,230.843719 
	C381.919312,231.658051 383.406219,232.399536 384.938904,233.433655 
M318.729126,129.102798 
	C319.272247,124.865219 316.481323,122.842323 313.138245,122.253052 
	C311.338440,121.935806 308.199890,123.099609 307.472900,124.520180 
	C306.737518,125.957092 307.607635,129.102905 308.875793,130.501587 
	C311.943390,133.884903 315.185608,133.396957 318.729126,129.102798 
M186.961792,102.926605 
	C183.697372,99.422050 180.555954,101.572731 177.825577,103.526176 
	C176.660095,104.360016 175.652664,106.760216 176.032288,108.003029 
	C176.364761,109.091583 178.820572,110.301346 180.195297,110.150757 
	C183.676147,109.769447 187.006729,108.570724 187.359619,104.164070 
	C187.372208,104.006813 187.300049,103.842766 186.961792,102.926605 
z"/>
<path fill="#333D79" opacity="1.000000" stroke="none" 
	d="
M331.258423,183.749084 
	C343.879761,197.119202 350.373810,213.106598 353.887146,230.455078 
	C354.647644,234.210403 356.505798,236.287033 359.624451,238.418655 
	C377.312531,250.508591 395.929291,261.557983 409.866302,278.277435 
	C414.278748,283.570770 417.934387,289.704956 420.901093,295.946381 
	C425.899200,306.461609 422.409515,317.111603 411.850250,322.048157 
	C404.770050,325.358215 396.917206,327.514557 389.179443,328.822235 
	C368.843597,332.258942 348.801331,327.762726 328.719788,325.325592 
	C325.065948,324.882172 322.088470,325.060699 319.004974,327.483948 
	C294.644623,346.627930 266.938721,354.524231 236.344452,349.794220 
	C211.750046,345.991791 191.632248,333.555511 176.012741,314.099152 
	C165.908386,301.512726 158.547989,287.501434 155.039261,271.670074 
	C154.060654,267.254639 151.819855,264.708405 147.759033,262.571320 
	C128.684464,252.532974 110.646774,241.004547 96.595451,224.205017 
	C90.534393,216.958542 85.710670,208.959427 84.146637,199.618698 
	C81.925262,186.352203 90.956360,175.647934 105.786171,172.026993 
	C126.101112,167.066772 146.366440,168.466339 166.692429,171.488724 
	C171.779343,172.245148 176.828018,173.468277 181.936462,173.775757 
	C184.236313,173.914185 187.212158,172.963547 188.907425,171.430283 
	C205.120346,156.766739 224.470917,149.611542 245.867493,148.123398 
	C279.985565,145.750504 308.201843,158.291962 331.258423,183.749084 
M173.088486,301.613586 
	C176.623581,306.198364 179.894516,311.018738 183.738190,315.328308 
	C203.378555,337.349365 228.542725,347.186523 257.536316,346.741791 
	C276.564850,346.449921 294.060944,339.914337 309.907196,329.291046 
	C312.003632,327.885590 313.823700,326.067993 316.634033,323.721313 
	C306.223846,321.345032 297.045319,319.249878 287.095917,317.050507 
	C243.001007,305.420868 200.181183,290.375031 158.634155,268.707886 
	C161.868042,280.860901 165.102844,291.880280 173.088486,301.613586 
M351.033752,252.972839 
	C350.966644,247.815231 351.400848,242.593872 350.754395,237.509918 
	C344.709412,189.967148 304.611328,153.341003 256.567963,152.213074 
	C223.792618,151.443588 197.090820,164.648438 176.775650,190.372620 
	C167.109573,202.612335 161.377945,216.720703 158.216217,231.958206 
	C157.174194,236.980118 158.122894,240.312866 163.126648,242.825027 
	C170.252625,246.402649 176.825790,251.067261 183.884293,254.795792 
	C213.775269,270.585144 245.906464,280.663177 277.929565,290.881958 
	C291.047607,295.067963 304.636444,297.778656 318.666809,301.544525 
	C322.577942,302.297913 326.464996,303.358856 330.410919,303.667511 
	C332.229309,303.809723 335.073120,303.052094 335.904663,301.729614 
	C345.082031,287.133514 350.850220,271.383453 351.033752,252.972839 
M215.085175,272.434418 
	C192.634109,263.403168 171.166214,252.454834 151.060501,238.973099 
	C139.128311,230.972046 127.782349,222.212173 119.865868,209.863586 
	C113.008812,199.167542 115.862877,191.545090 127.953384,187.815231 
	C140.978439,183.797058 154.250992,184.081879 167.543976,185.619370 
	C176.132156,186.612701 178.471436,185.519333 182.966080,175.915756 
	C164.343002,174.769485 146.278839,173.271973 128.185333,172.694931 
	C118.042542,172.371460 107.847473,173.785263 98.554497,178.443222 
	C87.166023,184.151505 83.417572,194.216324 89.109619,205.549042 
	C92.128143,211.558868 96.120262,217.344284 100.718742,222.250778 
	C122.145782,245.112976 148.853104,260.713409 176.724045,273.865082 
	C223.036850,295.719086 271.204041,312.468933 321.957336,320.920593 
	C342.353271,324.316986 362.859955,327.266479 383.548645,325.773895 
	C391.825287,325.176758 400.326721,322.919403 407.981873,319.666870 
	C418.046600,315.390533 421.412109,305.326233 416.713104,295.425201 
	C413.973572,289.652832 410.212616,284.122986 405.927246,279.371399 
	C392.525513,264.511566 375.859009,253.686035 359.128693,243.022644 
	C358.118225,242.378616 356.850525,242.138199 355.477844,241.626190 
	C355.477844,245.164429 355.900330,248.220230 355.376740,251.104294 
	C354.630066,255.217026 356.436676,257.520325 359.450134,259.848724 
	C364.583405,263.815094 369.872070,267.746857 374.253998,272.473236 
	C378.827759,277.406586 383.035400,282.918182 386.254150,288.805206 
	C389.825745,295.337494 387.753174,300.634521 380.838013,303.331238 
	C375.191803,305.533051 369.106659,307.262115 363.096924,307.759064 
	C343.527740,309.377228 324.269226,306.859863 305.177216,302.381073 
	C274.478363,295.179474 244.919479,284.620819 215.085175,272.434418 
M126.973419,214.482224 
	C135.592651,221.906616 144.211884,229.331009 153.155472,237.034805 
	C155.982498,227.876114 157.904465,219.921356 160.909332,212.399170 
	C163.932587,204.830994 168.033005,197.693115 171.703217,190.282272 
	C169.755539,189.958328 168.125549,189.591919 166.475433,189.428162 
	C155.553162,188.344254 144.556412,186.753662 133.820541,190.306808 
	C119.464211,195.058182 117.424278,201.948669 126.973419,214.482224 
M378.102875,300.880005 
	C384.406982,296.927917 385.994659,293.612732 383.047546,287.782745 
	C376.942902,275.706482 366.673218,267.753479 354.674957,260.005005 
	C353.556030,276.364319 347.718719,290.146240 339.989441,303.864807 
	C353.096924,303.824463 365.425446,305.373108 378.102875,300.880005 
z"/>
<path fill="#F5F5F7" opacity="1.000000" stroke="none" 
	d="
M411.605469,327.224976 
	C411.574127,327.086700 411.886963,327.338257 411.898407,327.388916 
	C411.909851,327.439606 411.636780,327.363251 411.605469,327.224976 
z"/>
<path fill="#303878" opacity="1.000000" stroke="none" 
	d="
M94.073669,169.096649 
	C93.950935,169.447128 93.587517,169.581512 93.224091,169.715881 
	C93.163055,169.463959 93.102020,169.212051 93.183502,168.719360 
	C93.495018,168.612579 93.664001,168.746552 94.073669,169.096649 
z"/>
<path fill="#FBFBFC" opacity="1.000000" stroke="none" 
	d="
M185.423553,381.420013 
	C182.088837,386.416626 178.969696,391.121948 175.499619,396.356689 
	C172.131317,394.118530 168.909317,391.977570 165.519623,389.725189 
	C167.518021,386.586761 169.280975,383.818085 171.245102,380.733490 
	C168.997543,379.250153 166.973389,377.914246 164.660019,376.387482 
	C162.598587,379.359283 160.731018,382.051575 158.605453,385.115814 
	C155.360657,382.960999 152.239594,380.888306 148.625046,378.487946 
	C154.372696,369.833008 160.012756,361.340118 165.926163,352.435577 
	C169.348251,354.705872 172.472839,356.778778 175.894165,359.048553 
	C173.822891,362.324982 171.917374,365.339233 169.915298,368.506226 
	C172.186523,369.988342 174.263382,371.343628 176.544037,372.831879 
	C178.593033,369.823517 180.543762,366.959473 182.800095,363.646698 
	C186.051025,365.812683 189.172638,367.892487 192.727814,370.261169 
	C190.271744,374.026550 187.955429,377.577667 185.423553,381.420013 
z"/>
<path fill="#F9FAFB" opacity="1.000000" stroke="none" 
	d="
M233.431580,383.171204 
	C233.258942,385.907867 233.088745,388.233795 232.960312,390.562073 
	C232.934357,391.032654 233.066452,391.511932 233.323547,393.575043 
	C238.063171,383.815063 244.409195,379.237335 254.673523,383.912201 
	C251.727722,387.500702 248.424835,391.167328 245.603958,395.173340 
	C244.734406,396.408295 244.503326,398.890198 245.147247,400.247223 
	C247.264069,404.708282 249.916565,408.915161 253.147568,414.599548 
	C247.662582,413.824707 242.546387,414.462646 239.391159,412.273804 
	C236.232651,410.082672 235.033310,405.067383 232.348953,400.140625 
	C231.754654,404.898071 231.301987,408.521820 230.801346,412.529572 
	C226.950195,412.261261 223.227554,412.001862 218.997818,411.707153 
	C219.856812,401.329071 220.687790,391.289551 221.619598,380.031738 
	C225.879425,381.014709 229.664078,381.888000 233.431580,383.171204 
z"/>
<path fill="#F8F8FB" opacity="1.000000" stroke="none" 
	d="
M180.161011,397.016602 
	C186.331787,389.781128 192.420181,382.928528 198.163040,375.797607 
	C200.128098,373.357605 201.861786,373.297638 204.486496,374.226440 
	C213.815033,377.527435 213.819046,377.459167 214.099564,387.450623 
	C214.207062,391.279480 214.497787,395.103577 214.583450,398.932556 
	C214.668930,402.753265 214.602203,406.577393 214.602203,410.930969 
	C211.407867,409.864288 208.178650,408.836029 204.994171,407.684082 
	C204.285187,407.427643 203.485489,406.866241 203.148575,406.224304 
	C200.306915,400.809753 197.033142,400.505646 190.734024,401.617218 
	C187.492523,402.189240 183.562225,398.857880 180.161011,397.016602 
z"/>
<path fill="#FAFAFC" opacity="1.000000" stroke="none" 
	d="
M151.649963,123.517227 
	C153.292633,122.320038 154.645233,121.363457 156.274216,120.211418 
	C159.009003,122.252800 161.735016,124.287643 165.523773,127.115768 
	C163.885193,122.933891 162.703049,119.916924 161.353043,116.471542 
	C164.297806,114.229500 167.285568,111.954704 170.846237,109.243729 
	C173.675201,117.862274 176.342804,125.989250 179.158386,134.567078 
	C176.422913,136.607788 173.665344,138.665009 170.846954,140.767578 
	C168.143219,138.980072 165.607651,137.303772 162.626221,135.332687 
	C163.485443,139.085968 165.417877,142.547806 164.508118,144.919281 
	C163.551392,147.413193 159.875153,148.863831 157.183060,150.926819 
	C149.963730,145.880447 142.909531,140.949524 135.812775,135.988861 
	C143.489441,127.906158 143.489441,127.906158 153.629211,135.249496 
	C152.616501,132.344925 151.685806,130.265411 151.206848,128.086594 
	C150.906647,126.720879 151.285629,125.205864 151.649963,123.517227 
z"/>
<path fill="#FAFAFC" opacity="1.000000" stroke="none" 
	d="
M351.777222,163.056580 
	C351.379120,162.773453 350.982239,162.488586 350.582733,162.207504 
	C344.463165,157.901779 340.499207,152.811386 343.940521,144.805435 
	C344.338531,143.879456 343.994507,142.634491 343.994507,141.017395 
	C341.223206,143.871887 338.863159,146.302780 336.208710,149.036926 
	C332.986206,146.090973 330.219604,143.561783 327.148651,140.754364 
	C334.353638,132.959641 341.302155,125.442413 348.357666,117.809402 
	C351.406189,120.601944 354.194397,123.156021 357.238708,125.944702 
	C354.762695,128.629745 352.557617,131.020996 350.352509,133.412247 
	C359.199066,131.089661 367.270325,130.698090 372.194458,140.752441 
	C367.856506,141.771683 363.329163,143.096375 358.707825,143.825912 
	C355.816254,144.282379 354.924957,145.582703 354.577087,148.291107 
	C353.970398,153.014465 352.933746,157.682587 351.900269,162.735779 
	C351.723236,163.097687 351.777222,163.056564 351.777222,163.056580 
z"/>
<path fill="#FAFAFC" opacity="1.000000" stroke="none" 
	d="
M282.507202,102.436829 
	C283.460938,99.755585 284.247864,97.432396 285.388458,94.065025 
	C289.105347,96.150795 292.315002,98.127426 295.696167,99.745743 
	C296.753906,100.252007 298.274994,99.817825 299.582367,99.770271 
	C306.796143,99.507942 310.950745,104.278763 309.163452,111.221466 
	C307.804199,116.501587 305.920990,121.646820 304.069061,127.488716 
	C300.291656,126.293480 296.789703,125.185410 293.060852,124.005539 
	C294.458893,119.747894 295.893341,116.047836 296.802032,112.222870 
	C297.091614,111.003929 295.984741,109.453217 295.516846,108.054306 
	C294.321777,108.944611 292.554932,109.585915 292.038513,110.771751 
	C290.470734,114.371910 289.386505,118.182655 287.990601,122.272774 
	C284.229187,121.014755 280.841461,119.881721 277.205841,118.665771 
	C278.990112,113.150551 280.665253,107.972717 282.507202,102.436829 
z"/>
<path fill="#F8F8FA" opacity="1.000000" stroke="none" 
	d="
M378.996094,178.125732 
	C379.735382,179.384399 380.321808,180.302109 380.908234,181.219818 
	C381.423584,180.964584 381.938965,180.709351 382.454315,180.454102 
	C380.851105,177.347900 379.247894,174.241714 377.362091,170.587936 
	C378.924133,169.390823 380.984863,167.811523 383.871521,165.599274 
	C386.222961,169.815720 389.408844,174.446808 391.468903,179.533829 
	C393.435638,184.390503 391.333099,188.813309 386.471161,191.845551 
	C382.391724,194.389755 378.071869,196.548508 372.905640,199.404678 
	C371.483856,195.466537 370.205322,191.794250 368.804749,188.169113 
	C368.558716,187.532349 367.870178,186.992401 367.268219,186.579422 
	C363.561035,184.035995 361.701996,180.364120 363.231049,176.264771 
	C364.057281,174.049652 366.739227,171.743698 369.058960,171.036301 
	C373.496490,169.683136 375.964264,173.146591 378.068665,176.502579 
	C378.333923,176.925552 378.585358,177.357162 378.996094,178.125732 
z"/>
<path fill="#F9F9FB" opacity="1.000000" stroke="none" 
	d="
M259.219849,117.123993 
	C253.125488,114.885460 249.710190,110.871849 249.567322,104.710938 
	C249.446655,99.507767 251.622879,95.241241 256.515930,92.961678 
	C262.420380,90.210945 268.254059,90.752220 273.452423,94.655411 
	C275.057709,95.860733 276.392181,97.927879 277.000488,99.867119 
	C278.929565,106.017143 276.825470,108.471252 270.470673,107.918953 
	C267.502869,107.661026 264.546021,107.277046 261.584229,106.950195 
	C261.516327,107.525162 261.448425,108.100128 261.380554,108.675102 
	C264.692841,109.074776 268.005157,109.474449 271.741699,109.925308 
	C272.077179,111.447090 272.532776,113.513680 273.048645,115.853729 
	C268.664001,118.293510 264.239380,118.606361 259.219849,117.123993 
z"/>
<path fill="#F8F8FA" opacity="1.000000" stroke="none" 
	d="
M207.857574,123.037300 
	C204.864380,123.446198 202.279221,123.799782 199.372681,124.197327 
	C198.777481,121.495888 198.294495,119.303795 197.767349,116.911209 
	C201.897552,116.168388 205.636139,115.496002 209.374741,114.823616 
	C209.333740,114.318871 209.292725,113.814125 209.251724,113.309380 
	C206.606644,113.309380 203.762314,113.921310 201.370773,113.142624 
	C198.821091,112.312454 195.398087,110.572868 194.747986,108.485466 
	C194.064178,106.289864 195.470612,102.473671 197.270325,100.667732 
	C201.559662,96.363556 207.339523,95.321228 213.613510,95.593361 
	C214.158752,97.979408 214.665131,100.195389 215.171951,102.413254 
	C211.519348,103.093925 208.120071,103.727386 204.720779,104.360847 
	C204.808319,104.885468 204.895859,105.410088 204.983398,105.934708 
	C207.038101,105.782890 209.091202,105.534164 211.147858,105.500046 
	C215.060181,105.435150 218.568680,106.311348 219.740128,110.682556 
	C220.843353,114.799164 219.031937,117.926132 215.581696,119.941841 
	C213.322174,121.261917 210.716339,121.989212 207.857574,123.037300 
z"/>
<path fill="#F9F9FB" opacity="1.000000" stroke="none" 
	d="
M227.954056,110.031982 
	C230.806183,110.055489 233.188995,110.055489 235.571808,110.055489 
	C235.619141,109.617981 235.666473,109.180473 235.713806,108.742973 
	C233.117371,108.209343 230.226959,108.212418 228.004868,106.995331 
	C225.652130,105.706711 222.430283,103.335464 222.324661,101.295380 
	C222.195236,98.795692 224.293594,95.216759 226.514847,93.756714 
	C231.380188,90.558640 237.099152,90.298836 243.013062,91.929199 
	C243.013062,94.231850 243.013062,96.356773 243.013062,98.894554 
	C239.700806,98.894554 236.294983,98.894554 232.889175,98.894554 
	C232.823914,99.316780 232.758652,99.739006 232.693375,100.161232 
	C234.421494,100.454475 236.154785,100.720421 237.876694,101.046455 
	C241.909348,101.810020 245.886093,102.663666 246.266541,107.904633 
	C246.588684,112.342400 243.922150,115.680092 238.690262,116.915634 
	C236.124771,117.521492 233.445084,117.845230 230.807938,117.907059 
	C223.888351,118.069267 223.654083,117.741043 223.871201,110.183708 
	C225.047882,110.126648 226.266312,110.067566 227.954056,110.031982 
z"/>
<path fill="#F9F9FB" opacity="1.000000" stroke="none" 
	d="
M375.847534,208.227509 
	C375.053772,205.640182 374.365936,203.448257 373.493622,200.668518 
	C381.582794,198.092773 389.378265,195.610535 397.300842,193.087814 
	C400.468628,199.310318 399.793732,206.586823 405.288300,212.578400 
	C401.012390,213.450195 398.028351,214.058609 395.096497,214.656372 
	C390.859161,207.296921 390.889557,207.402954 382.172272,209.901566 
	C380.134766,210.485550 377.082520,213.450058 375.847534,208.227509 
z"/>
<path fill="#FAFAFB" opacity="1.000000" stroke="none" 
	d="
M351.689392,163.100250 
	C353.049469,162.656143 354.684906,162.535339 355.798065,161.710022 
	C363.122345,156.279816 370.334015,150.697784 378.034424,144.820251 
	C380.304901,147.739334 382.504120,150.566849 385.104553,153.910156 
	C376.391937,160.559998 367.772949,167.138382 358.287781,174.377884 
	C356.193420,170.320114 354.384613,166.815567 352.176514,163.183807 
	C351.777222,163.056564 351.723236,163.097687 351.689392,163.100250 
z"/>
<path fill="#F8F8FA" opacity="1.000000" stroke="none" 
	d="
M193.825745,118.147057 
	C195.045135,120.892403 196.118759,123.287674 197.443649,126.243568 
	C194.038437,127.834007 190.819489,129.337448 187.063751,131.091599 
	C184.377853,125.236137 181.725540,119.453896 178.958054,113.420570 
	C182.500366,111.786804 185.762741,110.282150 189.341064,108.631767 
	C190.885574,111.894272 192.282776,114.845627 193.825745,118.147057 
z"/>
<path fill="#F6F6F9" opacity="1.000000" stroke="none" 
	d="
M384.584656,233.304031 
	C383.406219,232.399536 381.919312,231.658051 381.878296,230.843719 
	C381.738068,228.059860 381.719238,225.130844 382.524323,222.526199 
	C382.755005,221.779922 387.044983,221.140305 387.548187,221.838806 
	C389.138580,224.046646 390.619293,226.907608 390.632019,229.523270 
	C390.645966,232.384781 388.185150,234.058334 384.584656,233.304031 
z"/>
<path fill="#F7F8FA" opacity="1.000000" stroke="none" 
	d="
M318.572479,129.447998 
	C315.185608,133.396957 311.943390,133.884903 308.875793,130.501587 
	C307.607635,129.102905 306.737518,125.957092 307.472900,124.520180 
	C308.199890,123.099609 311.338440,121.935806 313.138245,122.253052 
	C316.481323,122.842323 319.272247,124.865219 318.572479,129.447998 
z"/>
<path fill="#F8F8FA" opacity="1.000000" stroke="none" 
	d="
M187.114594,103.304245 
	C187.300049,103.842766 187.372208,104.006813 187.359619,104.164070 
	C187.006729,108.570724 183.676147,109.769447 180.195297,110.150757 
	C178.820572,110.301346 176.364761,109.091583 176.032288,108.003029 
	C175.652664,106.760216 176.660095,104.360016 177.825577,103.526176 
	C180.555954,101.572731 183.697372,99.422050 187.114594,103.304245 
z"/>
<path fill="#3189F9" opacity="1.000000" stroke="none" 
	d="
M318.011108,301.160492 
	C304.636444,297.778656 291.047607,295.067963 277.929565,290.881958 
	C245.906464,280.663177 213.775269,270.585144 183.884293,254.795792 
	C176.825790,251.067261 170.252625,246.402649 163.126648,242.825027 
	C158.122894,240.312866 157.174194,236.980118 158.216217,231.958206 
	C161.377945,216.720703 167.109573,202.612335 176.775650,190.372620 
	C197.090820,164.648438 223.792618,151.443588 256.567963,152.213074 
	C304.611328,153.341003 344.709412,189.967148 350.754395,237.509918 
	C351.400848,242.593872 350.966644,247.815231 350.727112,253.686035 
	C346.106262,262.561615 342.521759,271.233032 337.279297,278.747803 
	C331.671051,286.786896 324.500000,293.735779 318.011108,301.160492 
M193.394440,239.652710 
	C193.394440,244.068939 193.394440,248.485168 193.394440,254.155792 
	C197.986496,246.178146 201.891205,238.895477 212.669724,241.453995 
	C201.935562,235.342102 206.914719,226.327820 207.349228,217.065659 
	C202.035828,225.257080 197.463882,232.474396 186.838486,231.644104 
	C189.411682,234.679855 191.222122,236.815765 193.394440,239.652710 
M323.063843,241.528244 
	C323.281067,242.339142 323.498291,243.150040 323.526001,243.253448 
	C327.263794,240.844040 330.836243,238.541229 334.332947,236.287216 
	C329.783936,233.160614 332.298706,227.585770 332.484253,223.417953 
	C328.600677,226.289276 324.426086,229.375748 320.790924,232.063385 
	C321.493073,234.434509 322.440155,237.632736 323.063843,241.528244 
M228.945480,227.637589 
	C232.143631,225.260406 235.341766,222.883240 238.540665,220.505508 
	C233.409760,217.670120 236.649719,212.020874 236.647659,207.861572 
	C232.725555,210.707062 228.559967,213.729172 224.339462,216.791138 
	C226.958405,219.023666 229.393112,222.392609 227.174881,227.197647 
	C227.145401,227.261505 227.872253,227.674545 228.945480,227.637589 
z"/>
<path fill="#FCE697" opacity="1.000000" stroke="none" 
	d="
M215.425751,272.614197 
	C244.919479,284.620819 274.478363,295.179474 305.177216,302.381073 
	C324.269226,306.859863 343.527740,309.377228 363.096924,307.759064 
	C369.106659,307.262115 375.191803,305.533051 380.838013,303.331238 
	C387.753174,300.634521 389.825745,295.337494 386.254150,288.805206 
	C383.035400,282.918182 378.827759,277.406586 374.253998,272.473236 
	C369.872070,267.746857 364.583405,263.815094 359.450134,259.848724 
	C356.436676,257.520325 354.630066,255.217026 355.376740,251.104294 
	C355.900330,248.220230 355.477844,245.164429 355.477844,241.626190 
	C356.850525,242.138199 358.118225,242.378616 359.128693,243.022644 
	C375.859009,253.686035 392.525513,264.511566 405.927246,279.371399 
	C410.212616,284.122986 413.973572,289.652832 416.713104,295.425201 
	C421.412109,305.326233 418.046600,315.390533 407.981873,319.666870 
	C400.326721,322.919403 391.825287,325.176758 383.548645,325.773895 
	C362.859955,327.266479 342.353271,324.316986 321.957336,320.920593 
	C271.204041,312.468933 223.036850,295.719086 176.724045,273.865082 
	C148.853104,260.713409 122.145782,245.112976 100.718742,222.250778 
	C96.120262,217.344284 92.128143,211.558868 89.109619,205.549042 
	C83.417572,194.216324 87.166023,184.151505 98.554497,178.443222 
	C107.847473,173.785263 118.042542,172.371460 128.185333,172.694931 
	C146.278839,173.271973 164.343002,174.769485 182.966080,175.915756 
	C178.471436,185.519333 176.132156,186.612701 167.543976,185.619370 
	C154.250992,184.081879 140.978439,183.797058 127.953384,187.815231 
	C115.862877,191.545090 113.008812,199.167542 119.865868,209.863586 
	C127.782349,222.212173 139.128311,230.972046 151.060501,238.973099 
	C171.166214,252.454834 192.634109,263.403168 215.425751,272.614197 
z"/>
<path fill="#3188F9" opacity="1.000000" stroke="none" 
	d="
M173.012756,300.899689 
	C165.102844,291.880280 161.868042,280.860901 158.634155,268.707886 
	C200.181183,290.375031 243.001007,305.420868 287.446289,317.443634 
	C286.422760,318.656708 285.127228,319.668671 283.662598,320.266205 
	C271.779633,325.113922 259.204803,326.910614 246.573486,326.844116 
	C229.449768,326.754059 212.845276,323.227875 197.563751,315.115631 
	C189.216766,310.684631 181.186081,305.657806 173.012756,300.899689 
z"/>
<path fill="#195DAD" opacity="1.000000" stroke="none" 
	d="
M173.050629,301.256653 
	C181.186081,305.657806 189.216766,310.684631 197.563751,315.115631 
	C212.845276,323.227875 229.449768,326.754059 246.573486,326.844116 
	C259.204803,326.910614 271.779633,325.113922 283.662598,320.266205 
	C285.127228,319.668671 286.422760,318.656708 287.831726,317.495728 
	C297.045319,319.249878 306.223846,321.345032 316.634033,323.721313 
	C313.823700,326.067993 312.003632,327.885590 309.907196,329.291046 
	C294.060944,339.914337 276.564850,346.449921 257.536316,346.741791 
	C228.542725,347.186523 203.378555,337.349365 183.738190,315.328308 
	C179.894516,311.018738 176.623581,306.198364 173.050629,301.256653 
z"/>
<path fill="#F8F8F9" opacity="1.000000" stroke="none" 
	d="
M126.732353,214.216324 
	C117.424278,201.948669 119.464211,195.058182 133.820541,190.306808 
	C144.556412,186.753662 155.553162,188.344254 166.475433,189.428162 
	C168.125549,189.591919 169.755539,189.958328 171.703217,190.282272 
	C168.033005,197.693115 163.932587,204.830994 160.909332,212.399170 
	C157.904465,219.921356 155.982498,227.876114 153.155472,237.034805 
	C144.211884,229.331009 135.592651,221.906616 126.732353,214.216324 
z"/>
<path fill="#F8F9F9" opacity="1.000000" stroke="none" 
	d="
M377.732178,300.997253 
	C365.425446,305.373108 353.096924,303.824463 339.989441,303.864807 
	C347.718719,290.146240 353.556030,276.364319 354.674957,260.005005 
	C366.673218,267.753479 376.942902,275.706482 383.047546,287.782745 
	C385.994659,293.612732 384.406982,296.927917 377.732178,300.997253 
z"/>
<path fill="#1A5DAD" opacity="1.000000" stroke="none" 
	d="
M318.338959,301.352509 
	C324.500000,293.735779 331.671051,286.786896 337.279297,278.747803 
	C342.521759,271.233032 346.106262,262.561615 350.661865,254.143555 
	C350.850220,271.383453 345.082031,287.133514 335.904663,301.729614 
	C335.073120,303.052094 332.229309,303.809723 330.410919,303.667511 
	C326.464996,303.358856 322.577942,302.297913 318.338959,301.352509 
z"/>
<path fill="#F3F4F7" opacity="1.000000" stroke="none" 
	d="
M193.213501,239.302185 
	C191.222122,236.815765 189.411682,234.679855 186.838486,231.644104 
	C197.463882,232.474396 202.035828,225.257080 207.349228,217.065659 
	C206.914719,226.327820 201.935562,235.342102 212.669724,241.453995 
	C201.891205,238.895477 197.986496,246.178146 193.394440,254.155792 
	C193.394440,248.485168 193.394440,244.068939 193.213501,239.302185 
z"/>
<path fill="#F1F3F6" opacity="1.000000" stroke="none" 
	d="
M323.225525,241.179611 
	C322.440155,237.632736 321.493073,234.434509 320.790924,232.063385 
	C324.426086,229.375748 328.600677,226.289276 332.484253,223.417953 
	C332.298706,227.585770 329.783936,233.160614 334.332947,236.287216 
	C330.836243,238.541229 327.263794,240.844040 323.526001,243.253448 
	C323.498291,243.150040 323.281067,242.339142 323.225525,241.179611 
z"/>
<path fill="#F3F4F7" opacity="1.000000" stroke="none" 
	d="
M228.595764,227.781097 
	C227.872253,227.674545 227.145401,227.261505 227.174881,227.197647 
	C229.393112,222.392609 226.958405,219.023666 224.339462,216.791138 
	C228.559967,213.729172 232.725555,210.707062 236.647659,207.861572 
	C236.649719,212.020874 233.409760,217.670120 238.540665,220.505508 
	C235.341766,222.883240 232.143631,225.260406 228.595764,227.781097 
z"/>
</svg>